<svg width="46" height="46" viewBox="0 0 46 46" fill="none" xmlns="http://www.w3.org/2000/svg">
<path d="M22.136 23.117L21.54 25.532C22.276 25.717 24.544 26.453 24.88 25.091C25.23 23.67 22.871 23.302 22.136 23.117ZM22.949 19.82L22.409 22.011C23.021 22.165 24.909 22.795 25.215 21.556C25.533 20.263 23.561 19.975 22.949 19.82ZM23 13C21.0222 13 19.0888 13.5865 17.4443 14.6853C15.7998 15.7841 14.5181 17.3459 13.7612 19.1732C13.0043 21.0004 12.8063 23.0111 13.1922 24.9509C13.578 26.8907 14.5304 28.6725 15.9289 30.0711C17.3275 31.4696 19.1093 32.422 21.0491 32.8079C22.9889 33.1937 24.9996 32.9957 26.8268 32.2388C28.6541 31.4819 30.2159 30.2002 31.3147 28.5557C32.4135 26.9112 33 24.9778 33 23C33 21.6868 32.7414 20.3864 32.2388 19.1732C31.7363 17.9599 30.9997 16.8575 30.0711 15.9289C29.1425 15.0003 28.0401 14.2638 26.8268 13.7612C25.6136 13.2587 24.3132 13 23 13ZM27.358 21.575C27.337 21.9586 27.1898 22.3246 26.9393 22.6159C26.6889 22.9072 26.3491 23.1077 25.973 23.186C26.2203 23.2867 26.444 23.4374 26.6301 23.6288C26.8162 23.8203 26.9606 24.0481 27.0543 24.2981C27.148 24.5481 27.1888 24.8148 27.1743 25.0814C27.1598 25.348 27.0903 25.6086 26.97 25.847C26.384 27.539 24.993 27.682 23.143 27.328L22.694 29.148L21.609 28.874L22.052 27.079C21.772 27.009 21.484 26.934 21.188 26.852L20.743 28.656L19.659 28.383L20.109 26.559C19.855 26.494 19.598 26.424 19.335 26.358L17.923 26.002L18.462 24.746C18.462 24.746 19.262 24.961 19.25 24.945C19.2998 24.9611 19.3522 24.9671 19.4043 24.9627C19.4564 24.9583 19.5071 24.9435 19.5535 24.9193C19.5998 24.8951 19.6409 24.862 19.6743 24.8217C19.7077 24.7815 19.7328 24.735 19.748 24.685L20.965 19.746C20.9806 19.5948 20.9365 19.4435 20.8422 19.3243C20.7479 19.2052 20.6107 19.1275 20.46 19.108C20.476 19.097 19.671 18.91 19.671 18.91L19.961 17.738L21.456 18.116L21.455 18.122C21.68 18.178 21.912 18.232 22.148 18.286L22.592 16.484L23.677 16.758L23.241 18.524C23.532 18.592 23.825 18.659 24.111 18.731L24.543 16.976L25.628 17.25L25.183 19.052C26.553 19.529 27.555 20.245 27.358 21.575Z" fill="#2A6FD6"/>
<rect x="0.5" y="0.5" width="45" height="45" rx="9.5" stroke="#005EF6"/>
</svg>
