<svg width="64" height="64" viewBox="0 0 64 64" fill="none" xmlns="http://www.w3.org/2000/svg">
<path d="M10.2436 19.4785L27.0306 12.7248L45.0066 10.1637L49.664 27.5453C53.5366 43.2906 38.7588 51.1626 38.7588 51.1626C38.7588 51.1626 19.926 53.5966 14.9009 36.86L10.2436 19.4785Z" fill="#1090F3"/>
<path d="M15.3267 22.2055L28.1914 17.0299L41.9672 15.0672L45.5363 28.3875C48.5814 40.3155 36.9952 46.3336 36.9952 46.3336C36.9952 46.3336 22.9904 48.6396 18.8958 35.5258L15.3267 22.2055Z" fill="#229AF7"/>
<mask id="mask0_410_3042" style="mask-type:alpha" maskUnits="userSpaceOnUse" x="15" y="15" width="32" height="32">
<path d="M15.3267 22.2055L28.1914 17.0299L41.9672 15.0672L45.5363 28.3875C48.5899 39.8327 37.1914 46.2454 37.1914 46.2454C37.1914 46.2454 22.7646 48.6229 18.8958 35.5258L15.3267 22.2055Z" fill="#2199F6"/>
</mask>
<g mask="url(#mask0_410_3042)">
<path d="M14.72 46.1808L36.0251 9.27946L6.92188 17.0776L14.72 46.1808Z" fill="#41ABFD"/>
<path d="M26.8889 52.7913L47.4448 17.1874L54.9687 45.2673L26.8889 52.7913Z" fill="#41ABFD"/>
<path d="M17.5253 52.2292L43.4748 7.28331L44.7028 6.95427L45.7996 11.0475L20.749 54.4365L18.293 55.0945L17.5253 52.2292Z" fill="#41ABFD"/>
</g>
<path fill-rule="evenodd" clip-rule="evenodd" d="M26.8245 14.1506L12.1198 20.4137L12.0195 20.1781L26.7242 13.915L26.8245 14.1506ZM20.5822 35.9345L29.75 20.2314L29.9711 20.3604L20.8033 36.0636L20.5822 35.9345ZM29.7482 39.75L38.8251 23.1391L39.0498 23.2619L29.9729 39.8727L29.7482 39.75ZM42.7536 36.6426C43.7422 34.4755 44.1201 32.273 44.1649 30.9117L44.4208 30.9202C44.3749 32.3122 43.9903 34.5483 42.9865 36.7488C41.9824 38.9499 40.3538 41.1255 37.814 42.3769L37.7009 42.1473C40.1716 40.9299 41.7653 38.809 42.7536 36.6426Z" fill="white"/>
<path fill-rule="evenodd" clip-rule="evenodd" d="M42.4756 12.4229C45.2301 12.4229 47.463 10.19 47.463 7.43558C47.463 4.68115 45.2301 2.44824 42.4756 2.44824C39.7212 2.44824 37.4883 4.68115 37.4883 7.43558C37.4883 10.19 39.7212 12.4229 42.4756 12.4229ZM42.4756 10.3897C44.1071 10.3897 45.4297 9.06708 45.4297 7.43558C45.4297 5.80408 44.1071 4.48149 42.4756 4.48149C40.8441 4.48149 39.5215 5.80408 39.5215 7.43558C39.5215 9.06708 40.8441 10.3897 42.4756 10.3897Z" fill="#D0D0D0"/>
<path d="M35.5469 7.43555L49.4029 7.43555L49.4029 17.464L35.5469 17.464L35.5469 7.43555Z" fill="#FFC037"/>
<path fill-rule="evenodd" clip-rule="evenodd" d="M43.2516 12.7358C43.6416 12.4817 43.8994 12.0417 43.8994 11.5415C43.8994 10.7549 43.2617 10.1172 42.4751 10.1172C41.6885 10.1172 41.0508 10.7549 41.0508 11.5415C41.0508 12.0417 41.3086 12.4817 41.6986 12.7358L41.6986 14.0062C41.6986 14.4351 42.0463 14.7827 42.4751 14.7827C42.9039 14.7827 43.2516 14.4351 43.2516 14.0062L43.2516 12.7358Z" fill="#3C444C"/>
<path fill-rule="evenodd" clip-rule="evenodd" d="M24.7777 55.0259C21.843 54.9775 19.5122 53.3126 18.7043 52.4775L18.9802 52.2105C19.7401 52.9959 21.9798 54.5957 24.784 54.6419L24.7777 55.0259ZM25.9157 59.3092C20.1588 58.9214 16.4768 55.177 15.3469 53.3373L15.6741 53.1363C16.7563 54.8983 20.3384 58.5486 25.9415 58.926L25.9157 59.3092Z" fill="#3C444C"/>
<path fill-rule="evenodd" clip-rule="evenodd" d="M49.9682 32.8285C50.0928 29.4273 49.336 26.4074 48.6021 24.6715L48.8379 24.5718C49.5856 26.3402 50.3501 29.3972 50.224 32.8379C50.0979 36.2804 49.0797 40.1138 46.2532 43.4228L46.0586 43.2566C48.839 40.0015 49.8436 36.228 49.9682 32.8285Z" fill="#3C444C"/>
<path fill-rule="evenodd" clip-rule="evenodd" d="M13.2617 31.2405L13.5079 31.1704L15.7683 39.1084C16.4308 41.1264 19.0138 45.7731 24.0292 48.1613L23.9192 48.3925C18.8221 45.9653 16.2009 41.2495 15.5243 39.1857L15.5235 39.1834L13.2617 31.2405Z" fill="#3C444C"/>
</svg>
