<svg width="25" height="24" viewBox="0 0 25 24" fill="none" xmlns="http://www.w3.org/2000/svg">
<g clip-path="url(#clip0_221:1083)">
<path d="M12.7559 15C14.4127 15 15.7559 13.6569 15.7559 12C15.7559 10.3431 14.4127 9 12.7559 9C11.099 9 9.75586 10.3431 9.75586 12C9.75586 13.6569 11.099 15 12.7559 15Z" stroke="white" stroke-width="2" stroke-linecap="round" stroke-linejoin="round"/>
<path d="M20.1559 15C20.0227 15.3016 19.983 15.6362 20.0419 15.9606C20.1007 16.285 20.2553 16.5843 20.4859 16.82L20.5459 16.88C20.7318 17.0657 20.8793 17.2863 20.98 17.5291C21.0806 17.7719 21.1324 18.0322 21.1324 18.295C21.1324 18.5578 21.0806 18.8181 20.98 19.0609C20.8793 19.3037 20.7318 19.5243 20.5459 19.71C20.3601 19.896 20.1395 20.0435 19.8967 20.1441C19.6539 20.2448 19.3937 20.2966 19.1309 20.2966C18.868 20.2966 18.6078 20.2448 18.365 20.1441C18.1222 20.0435 17.9016 19.896 17.7159 19.71L17.6559 19.65C17.4202 19.4195 17.1208 19.2648 16.7964 19.206C16.4721 19.1472 16.1375 19.1869 15.8359 19.32C15.5401 19.4468 15.2878 19.6572 15.1102 19.9255C14.9325 20.1938 14.8371 20.5082 14.8359 20.83V21C14.8359 21.5304 14.6251 22.0391 14.2501 22.4142C13.875 22.7893 13.3663 23 12.8359 23C12.3054 23 11.7967 22.7893 11.4216 22.4142C11.0466 22.0391 10.8359 21.5304 10.8359 21V20.91C10.8281 20.579 10.721 20.258 10.5284 19.9887C10.3358 19.7194 10.0666 19.5143 9.75586 19.4C9.45424 19.2669 9.11967 19.2272 8.79527 19.286C8.47088 19.3448 8.17154 19.4995 7.93586 19.73L7.87586 19.79C7.69011 19.976 7.46954 20.1235 7.22674 20.2241C6.98394 20.3248 6.72369 20.3766 6.46086 20.3766C6.19803 20.3766 5.93777 20.3248 5.69498 20.2241C5.45218 20.1235 5.23161 19.976 5.04586 19.79C4.85991 19.6043 4.71239 19.3837 4.61174 19.1409C4.51109 18.8981 4.45929 18.6378 4.45929 18.375C4.45929 18.1122 4.51109 17.8519 4.61174 17.6091C4.71239 17.3663 4.85991 17.1457 5.04586 16.96L5.10586 16.9C5.3364 16.6643 5.49104 16.365 5.54986 16.0406C5.60868 15.7162 5.56897 15.3816 5.43586 15.08C5.3091 14.7842 5.09861 14.532 4.83032 14.3543C4.56203 14.1766 4.24765 14.0813 3.92586 14.08H3.75586C3.22543 14.08 2.71672 13.8693 2.34165 13.4942C1.96657 13.1191 1.75586 12.6104 1.75586 12.08C1.75586 11.5496 1.96657 11.0409 2.34165 10.6658C2.71672 10.2907 3.22543 10.08 3.75586 10.08H3.84586C4.17685 10.0723 4.49786 9.96512 4.76716 9.77251C5.03645 9.5799 5.24158 9.31074 5.35586 9C5.48897 8.69838 5.52868 8.36381 5.46986 8.03941C5.41104 7.71502 5.2564 7.41568 5.02586 7.18L4.96586 7.12C4.77991 6.93425 4.63239 6.71368 4.53174 6.47088C4.43109 6.22808 4.37929 5.96783 4.37929 5.705C4.37929 5.44217 4.43109 5.18192 4.53174 4.93912C4.63239 4.69632 4.77991 4.47575 4.96586 4.29C5.15161 4.10405 5.37218 3.95653 5.61498 3.85588C5.85777 3.75523 6.11803 3.70343 6.38086 3.70343C6.64369 3.70343 6.90394 3.75523 7.14674 3.85588C7.38954 3.95653 7.61011 4.10405 7.79586 4.29L7.85586 4.35C8.09154 4.58054 8.39088 4.73519 8.71527 4.794C9.03967 4.85282 9.37424 4.81312 9.67586 4.68H9.75586C10.0516 4.55324 10.3039 4.34276 10.4816 4.07447C10.6592 3.80618 10.7546 3.49179 10.7559 3.17V3C10.7559 2.46957 10.9666 1.96086 11.3416 1.58579C11.7167 1.21071 12.2254 1 12.7559 1C13.2863 1 13.795 1.21071 14.1701 1.58579C14.5451 1.96086 14.7559 2.46957 14.7559 3V3.09C14.7571 3.41179 14.8525 3.72618 15.0302 3.99447C15.2078 4.26276 15.4601 4.47324 15.7559 4.6C16.0575 4.73312 16.3921 4.77282 16.7164 4.714C17.0408 4.65519 17.3402 4.50054 17.5759 4.27L17.6359 4.21C17.8216 4.02405 18.0422 3.87653 18.285 3.77588C18.5278 3.67523 18.788 3.62343 19.0509 3.62343C19.3137 3.62343 19.5739 3.67523 19.8167 3.77588C20.0595 3.87653 20.2801 4.02405 20.4659 4.21C20.6518 4.39575 20.7993 4.61632 20.9 4.85912C21.0006 5.10192 21.0524 5.36217 21.0524 5.625C21.0524 5.88783 21.0006 6.14808 20.9 6.39088C20.7993 6.63368 20.6518 6.85425 20.4659 7.04L20.4059 7.1C20.1753 7.33568 20.0207 7.63502 19.9619 7.95941C19.903 8.28381 19.9427 8.61838 20.0759 8.92V9C20.2026 9.29577 20.4131 9.54802 20.6814 9.72569C20.9497 9.90337 21.2641 9.99872 21.5859 10H21.7559C22.2863 10 22.795 10.2107 23.1701 10.5858C23.5451 10.9609 23.7559 11.4696 23.7559 12C23.7559 12.5304 23.5451 13.0391 23.1701 13.4142C22.795 13.7893 22.2863 14 21.7559 14H21.6659C21.3441 14.0013 21.0297 14.0966 20.7614 14.2743C20.4931 14.452 20.2826 14.7042 20.1559 15V15Z" stroke="white" stroke-width="2" stroke-linecap="round" stroke-linejoin="round"/>
</g>
<defs>
<clipPath id="clip0_221:1083">
<rect width="24" height="24" fill="white" transform="translate(0.755859)"/>
</clipPath>
</defs>
</svg>
