<svg width="199" height="175" viewBox="0 0 199 175" fill="none" xmlns="http://www.w3.org/2000/svg">
<g clip-path="url(#clip0)">
<path d="M102.129 55.7645C102.129 55.7645 101.87 41.9368 114.397 41.9368C127.602 41.9368 125.157 32.5794 137.896 33.3432C146.507 33.86 148.74 42.936 153.692 44.2771C158.643 45.6181 163.305 47.2455 163.305 55.5028L102.129 55.7645Z" fill="white"/>
<path d="M129.198 124.791C129.198 124.791 129.007 114.589 138.248 114.589C147.991 114.589 146.187 107.686 155.585 108.25C161.937 108.631 163.584 115.327 167.238 116.316C170.892 117.306 174.33 118.506 174.33 124.599L129.198 124.791Z" fill="white"/>
<path d="M0.499995 78.0382C0.499995 78.0382 0.270209 65.7523 11.3992 65.7523C23.132 65.7523 20.9592 57.4388 32.2768 58.1184C39.926 58.5775 41.9102 66.6411 46.3101 67.8326C50.7101 69.0241 54.8509 70.4699 54.8509 77.8061L0.499995 78.0382Z" fill="white"/>
<path opacity="0.1" d="M102.129 55.7645C102.129 55.7645 101.87 41.9368 114.397 41.9368C127.602 41.9368 125.157 32.5794 137.896 33.3432C146.507 33.86 148.74 42.936 153.692 44.2771C158.643 45.6181 163.305 47.2455 163.305 55.5028L102.129 55.7645Z" fill="#367CFF"/>
<path opacity="0.1" d="M129.198 124.791C129.198 124.791 129.007 114.589 138.248 114.589C147.991 114.589 146.187 107.686 155.585 108.25C161.937 108.631 163.584 115.327 167.238 116.316C170.892 117.306 174.33 118.506 174.33 124.599L129.198 124.791Z" fill="#367CFF"/>
<path opacity="0.1" d="M0.499995 78.0382C0.499995 78.0382 0.270209 65.7523 11.3992 65.7523C23.132 65.7523 20.9592 57.4388 32.2768 58.1184C39.926 58.5775 41.9102 66.6411 46.3101 67.8326C50.7101 69.0241 54.8509 70.4699 54.8509 77.8061L0.499995 78.0382Z" fill="#367CFF"/>
<path d="M130.654 25.9576C130.558 25.8028 130.494 25.63 130.466 25.4498C130.439 25.2695 130.449 25.0856 130.495 24.9092C130.541 24.7328 130.623 24.5676 130.735 24.4238C130.847 24.2799 130.987 24.1604 131.147 24.0724C131.463 23.913 131.828 23.8791 132.167 23.9777C132.507 24.0762 132.797 24.2999 132.978 24.6034L133.938 26.1421L133.473 20.7343C133.374 20.0409 133.693 19.1278 134.479 19.0663C135.111 18.975 135.626 18.1275 136.382 18.5002C136.389 18.4982 142.322 23.1635 142.416 23.8059L142.781 32.3661C143.178 35.0918 133.897 34.5455 133.897 34.5455L130.654 25.9576Z" fill="#E98862"/>
<g opacity="0.1">
<path opacity="0.1" d="M130.654 25.9576C130.558 25.8028 130.494 25.63 130.466 25.4498C130.439 25.2695 130.449 25.0856 130.495 24.9092C130.541 24.7328 130.623 24.5676 130.735 24.4238C130.847 24.2799 130.987 24.1604 131.147 24.0724C131.463 23.913 131.828 23.8791 132.167 23.9777C132.507 24.0762 132.797 24.2999 132.978 24.6034L133.938 26.1421L133.473 20.7343C133.374 20.0409 133.693 19.1278 134.479 19.0663C135.111 18.975 135.626 18.1275 136.382 18.5002C136.389 18.4982 142.322 23.1635 142.416 23.8059L142.781 32.3661C143.178 35.0918 133.897 34.5455 133.897 34.5455L130.654 25.9576Z" fill="#0C0C0C"/>
</g>
<path d="M67.2273 67.9486C67.2273 67.9486 66.6946 75.9271 64.896 78.8207C59.7183 87.1537 58.2183 96.5279 63.4034 101.426C68.5884 106.324 101.661 106.392 104.166 95.1275C106.275 85.6438 101.749 84.6239 100.647 76.801C100.149 73.2611 98.7781 65.8384 98.7781 65.8384" fill="#0A0A0A"/>
<path d="M95.6057 93.4757C95.5484 93.4683 94.9151 103.959 82.7034 103.044C74.2495 102.412 71.2352 93.4601 71.0404 93.4601C71.9521 93.2667 73.4869 92.9856 73.8916 92.7702C75.223 92.0562 76.8694 91.3135 77.299 88.7334C77.5471 87.2475 77.1268 79.639 77.2561 78.1338L90.2328 81.0244C90.0514 84.2018 88.7823 91.5683 93.2304 92.872C93.9714 93.0891 94.7687 93.2873 95.6057 93.4757Z" fill="#E98862"/>
<path opacity="0.5" d="M90.4158 89.863C90.2125 89.2092 90.0816 88.5352 90.0255 87.853C89.8828 86.2962 89.9112 84.7284 90.1103 83.1778C87.473 82.8225 84.9884 81.7361 82.9388 80.042C82.6978 80.9301 81.3727 84.8108 81.7397 85.6548C82.4326 87.2502 85.6915 89.863 90.4158 89.863Z" fill="#0C0C0C"/>
<path d="M88.7377 86.5946C83.6214 87.0899 77.0017 85.0463 75.6304 78.2467L74.3932 72.1113C73.0217 65.3117 75.4885 59.0807 81.9037 57.7919C88.3188 56.5041 94.2253 61.0525 95.5966 67.8521L96.1445 70.5684C96.6706 73.1774 97.8659 85.7132 88.7377 86.5946Z" fill="#E98862"/>
<path d="M92.3768 78.4627C90.7145 79.3062 88.8179 79.573 86.9867 79.2208C86.9233 79.2087 86.8578 79.215 86.7978 79.2388C86.7379 79.2626 86.6859 79.303 86.6481 79.3552C86.6103 79.4074 86.5883 79.4693 86.5845 79.5336C86.5807 79.5979 86.5953 79.662 86.6267 79.7183C87.1726 80.6785 88.4675 82.3187 90.6886 81.65C92.1232 81.2181 92.6654 79.7453 92.8664 78.8344C92.8801 78.7714 92.8755 78.7058 92.8531 78.6454C92.8307 78.5849 92.7916 78.532 92.7402 78.493C92.6888 78.454 92.6273 78.4304 92.5629 78.425C92.4985 78.4196 92.434 78.4327 92.3768 78.4627Z" fill="white"/>
<path d="M92.4808 71.0845C92.9244 71.0845 93.284 70.7256 93.284 70.2829C93.284 69.8401 92.9244 69.4812 92.4808 69.4812C92.0371 69.4812 91.6775 69.8401 91.6775 70.2829C91.6775 70.7256 92.0371 71.0845 92.4808 71.0845Z" fill="#0C0C0C"/>
<path d="M84.7621 72.4331C85.2058 72.4331 85.5654 72.0742 85.5654 71.6315C85.5654 71.1887 85.2058 70.8298 84.7621 70.8298C84.3185 70.8298 83.9589 71.1887 83.9589 71.6315C83.9589 72.0742 84.3185 72.4331 84.7621 72.4331Z" fill="#0C0C0C"/>
<path opacity="0.1" d="M85.4855 77.6846C86.3275 77.5844 86.9503 77.0035 86.8766 76.3872C86.8029 75.7708 86.0607 75.3525 85.2187 75.4527C84.3768 75.553 83.7539 76.1339 83.8276 76.7502C83.9013 77.3665 84.6436 77.7849 85.4855 77.6846Z" fill="#0C0C0C"/>
<path opacity="0.1" d="M94.3822 75.2202C94.4566 75.8356 95.1996 76.2534 96.0418 76.1543C96.1873 76.1369 96.3306 76.1045 96.4693 76.0575C96.5086 75.3237 96.5108 74.6176 96.4892 73.9641C96.2554 73.9058 96.0128 73.8916 95.7738 73.9222C94.9316 74.0215 94.3092 74.602 94.3822 75.2202Z" fill="#0C0C0C"/>
<path opacity="0.5" d="M90.6616 77.1226L90.6743 77.1206C90.9343 77.0665 91.1911 76.9981 91.4435 76.9158C91.8202 76.79 92.3121 76.5834 92.2446 76.2434C92.1666 75.8558 90.2594 71.8894 90.0427 71.4389C90.0238 71.3995 89.9898 71.3692 89.9485 71.3547C89.9072 71.3403 89.8617 71.3428 89.8223 71.3617C89.7828 71.3807 89.7524 71.4145 89.7379 71.4558C89.7234 71.4971 89.726 71.5424 89.745 71.5818C90.5581 73.271 91.8679 76.0482 91.9205 76.3093C91.8793 76.4309 91.2545 76.6684 90.6095 76.7981C90.5668 76.8056 90.5288 76.8296 90.5037 76.8648C90.4786 76.9001 90.4684 76.9438 90.4752 76.9865C90.4821 77.0291 90.5055 77.0674 90.5405 77.093C90.5754 77.1186 90.619 77.1295 90.6619 77.1233L90.6616 77.1226Z" fill="#0C0C0C"/>
<path d="M69.2746 74.3136L75.0257 73.1925C79.3701 71.3794 80.6024 63.8232 80.6024 63.8232C80.6024 63.8232 85.9642 68.919 98.7781 65.8376C98.7781 65.8376 95.9946 47.9852 77.0737 53.4042C70.9727 55.1514 66.6514 61.3576 67.2941 69.5777C67.7445 75.3384 69.2746 74.3136 69.2746 74.3136Z" fill="#0A0A0A"/>
<path d="M76.4467 80.2381C74.4972 80.6297 72.4969 78.8656 72.1041 76.9196C71.7113 74.9735 73.0758 73.5834 75.0253 73.1919L76.2929 74.2937L78.1222 79.9008L76.4467 80.2381Z" fill="#E98862"/>
<path d="M91.4246 68.2754C91.9124 67.931 92.4829 67.7219 93.078 67.6694C93.3766 67.641 93.6778 67.6577 93.9714 67.7189C94.2678 67.7793 94.5555 67.8766 94.8277 68.0084L94.8364 68.0124C94.8666 68.0257 94.9008 68.0266 94.9316 68.0151C94.9625 68.0036 94.9877 67.9805 95.0017 67.9507C95.0157 67.9209 95.0175 67.8868 95.0067 67.8557C94.9959 67.8246 94.9734 67.799 94.9439 67.7843C94.6555 67.6322 94.349 67.517 94.0317 67.4415C93.7122 67.364 93.3829 67.3349 93.0547 67.3551C92.3901 67.3919 91.7474 67.6057 91.1936 67.9742C91.152 68.0025 91.1233 68.046 91.1139 68.0954C91.1045 68.1447 91.1152 68.1957 91.1435 68.2372C91.1718 68.2788 91.2154 68.3073 91.2648 68.3167C91.3143 68.3261 91.3654 68.3155 91.407 68.2873L91.4115 68.284L91.4246 68.2754Z" fill="#0C0C0C"/>
<path d="M86.1714 68.9999C85.5183 68.8704 84.8424 68.9181 84.214 69.1381C83.9034 69.2449 83.6107 69.3976 83.3455 69.5911C83.0814 69.782 82.8424 70.0054 82.6343 70.256C82.6123 70.2808 82.601 70.3132 82.6027 70.3463C82.6045 70.3794 82.6192 70.4104 82.6437 70.4327C82.6682 70.455 82.7006 70.4668 82.7337 70.4656C82.7669 70.4643 82.7982 70.45 82.8209 70.4259L82.8276 70.419C83.0284 70.1932 83.2568 69.9935 83.5075 69.8246C83.7556 69.6557 84.0278 69.5252 84.315 69.4375C84.885 69.2591 85.4922 69.2344 86.0749 69.366L86.0893 69.3694C86.1382 69.3812 86.1897 69.3732 86.2327 69.3471C86.2756 69.321 86.3064 69.2789 86.3182 69.2301C86.3301 69.1813 86.322 69.1299 86.2958 69.087C86.2697 69.0442 86.2275 69.0135 86.1786 69.0017L86.1714 68.9999Z" fill="#0C0C0C"/>
<path d="M75.0294 73.0983C78.8956 71.6619 80.1782 68.9977 80.5735 67.0149C80.8292 65.6926 80.8053 64.3316 80.5033 63.019L80.3837 63.0517C80.681 64.3473 80.7039 65.6905 80.451 66.9954C80.0611 68.9456 78.7963 71.5673 74.9862 72.9824L75.0294 73.0983Z" fill="#0C0C0C"/>
<path d="M31.0149 44.0729L28.4763 35.9778C28.4205 35.7999 28.3283 35.6356 28.2053 35.4953C28.0824 35.355 27.9316 35.2417 27.7624 35.1628C27.5933 35.0838 27.4095 35.0409 27.2228 35.0367C27.0361 35.0325 26.8505 35.0672 26.678 35.1385C26.3635 35.28 26.1129 35.533 25.9748 35.8485C25.8367 36.164 25.8208 36.5194 25.9303 36.8458L26.4748 38.5816L22.2523 33.9072C21.7919 33.3792 20.8874 33.0253 20.3293 33.5798C20.1002 33.7791 19.9455 34.05 19.8904 34.3483C19.8354 34.6466 19.8833 34.9548 20.0264 35.2224C20.0202 35.2255 20.0145 35.2292 20.0092 35.2336C20.0058 35.2375 20.0027 35.2416 19.9998 35.246L19.2901 34.4319C19.1585 34.2812 18.9949 34.1617 18.8112 34.082C18.6274 34.0024 18.4282 33.9647 18.228 33.9717C18.0278 33.9787 17.8317 34.0301 17.654 34.1224C17.4763 34.2146 17.3214 34.3452 17.2007 34.5047C17.0156 34.7597 16.9239 35.0703 16.9409 35.3847C16.9579 35.699 17.0825 35.998 17.294 36.2316L17.596 36.5784C17.5901 36.5918 17.5865 36.6061 17.5856 36.6207C17.327 36.4339 17.0103 36.3449 16.6921 36.3697C16.3738 36.3945 16.0748 36.5315 15.8485 36.7562C15.6082 37.0092 15.4723 37.3433 15.468 37.692C15.4636 38.0406 15.5912 38.378 15.8252 38.6369L16.5756 39.4972C16.5564 39.4926 16.5363 39.4925 16.5171 39.4971C16.4979 39.5016 16.48 39.5107 16.4649 39.5235C16.4478 39.5396 16.4358 39.5603 16.4304 39.5831C16.1539 39.4807 15.8513 39.4717 15.5692 39.5576C15.2871 39.6434 15.041 39.8194 14.8688 40.0584C14.6931 40.3132 14.6087 40.6197 14.6293 40.9283C14.6498 41.2369 14.7742 41.5295 14.9822 41.7588L21.3133 49.0183C22.1991 50.0336 23.3685 50.762 24.6717 51.1099C25.9749 51.4578 27.3524 51.4096 28.628 50.9713C29.7278 50.5931 30.6365 49.8019 31.1611 48.7657C31.6856 47.7295 31.7847 46.53 31.4373 45.4221L31.0149 44.0729Z" fill="#E98862"/>
<g opacity="0.2">
<path opacity="0.2" d="M24.1827 39.8701C24.158 39.8914 24.126 39.9022 24.0935 39.9001C24.061 39.898 24.0306 39.8832 24.009 39.859L19.9998 35.4084C19.9778 35.384 19.9664 35.3518 19.9682 35.319C19.9699 35.2862 19.9847 35.2554 20.0092 35.2334C20.0336 35.2115 20.0659 35.2001 20.0987 35.2018C20.1316 35.2036 20.1625 35.2183 20.1845 35.2427L24.1941 39.6933C24.2161 39.7177 24.2275 39.7498 24.2258 39.7826C24.224 39.8154 24.2093 39.8462 24.1849 39.8682L24.1827 39.8701Z" fill="#0C0C0C"/>
</g>
<g opacity="0.2">
<path opacity="0.2" d="M22.2648 41.6891C22.2401 41.7104 22.2081 41.7211 22.1756 41.719C22.1431 41.717 22.1128 41.7022 22.0911 41.678L17.6169 36.711C17.5949 36.6866 17.5835 36.6545 17.5853 36.6217C17.587 36.5889 17.6017 36.5581 17.6261 36.5362C17.6511 36.5152 17.6831 36.5045 17.7157 36.5063C17.7483 36.508 17.779 36.5221 17.8016 36.5456L22.2762 41.5123C22.2982 41.5367 22.3096 41.5688 22.3079 41.6016C22.3062 41.6344 22.2915 41.6652 22.267 41.6871L22.2648 41.6891Z" fill="#0C0C0C"/>
</g>
<g opacity="0.2">
<path opacity="0.2" d="M20.1986 43.6713C20.174 43.6925 20.1419 43.7032 20.1094 43.7011C20.0769 43.699 20.0466 43.6842 20.0249 43.6599L16.456 39.6989C16.434 39.6745 16.4226 39.6423 16.4244 39.6095C16.4261 39.5767 16.4408 39.5459 16.4653 39.524C16.4898 39.502 16.522 39.4906 16.5549 39.4924C16.5878 39.4941 16.6186 39.5088 16.6406 39.5332L20.2103 43.4957C20.2323 43.5201 20.2436 43.5523 20.2418 43.5851C20.2401 43.6179 20.2253 43.6486 20.2008 43.6706L20.1986 43.6713Z" fill="#0C0C0C"/>
</g>
<path d="M129.74 29.4229L121.615 68.569L93.9457 96.4638L108.474 109.966L135.906 78.7083L136.071 78.5235C137.038 77.4128 137.712 76.079 138.033 74.6428L147.347 33.2139L129.74 29.4229Z" fill="#367CFF"/>
<path d="M82.29 100.435C73.8306 100.037 73.4745 92.8704 73.4745 92.8704C73.4745 92.8704 69.2828 93.1406 66.4963 93.517C61.9341 94.1329 58.9248 95.6768 56.5296 98.0669C54.3017 100.291 54.9338 107.227 54.9338 107.227L57.1699 153.637H108.227L110.641 107.482C110.641 107.482 113.384 101.625 108.722 96.7026C105.341 93.1334 96.6125 92.8704 93.0987 92.8704C93.0414 92.8704 93.8114 100.977 82.29 100.435Z" fill="#367CFF"/>
<path d="M42.544 76.3351L33.3957 43.6829L16.0964 48.6889L26.6718 83.8427C27.1555 85.436 28.0738 86.8635 29.324 87.9657L29.4977 88.1175L57.3622 112.561L69.9501 97.2408L42.544 76.3351Z" fill="#367CFF"/>
<path d="M131.715 19.6353L131.296 19.9202C130.233 20.6441 129.037 21.152 127.777 21.4146C126.516 21.6773 125.217 21.6897 123.952 21.4511C122.687 21.2125 121.482 20.7275 120.404 20.0239C119.327 19.3203 118.4 18.4119 117.674 17.3505L113.755 11.6151C113.704 11.5394 113.667 11.4544 113.649 11.3647C113.63 11.2751 113.629 11.1827 113.646 11.0927C113.663 11.0027 113.698 10.917 113.748 10.8404C113.798 10.7638 113.863 10.6978 113.939 10.6462L129.398 0.121439C129.551 0.0172794 129.74 -0.0219526 129.922 0.0123653C130.104 0.0466831 130.265 0.151743 130.369 0.304456L134.29 6.04087C135.015 7.10222 135.524 8.29579 135.787 9.55341C136.05 10.811 136.063 12.1081 135.824 13.3705C135.585 14.6328 135.099 15.8359 134.394 16.9108C133.689 17.9857 132.778 18.9115 131.715 19.6353Z" fill="#0CBC8B"/>
<path d="M123.983 8.591L126.332 9.91347C126.348 9.9225 126.365 9.92751 126.384 9.92807C126.402 9.92863 126.42 9.92472 126.437 9.91669L128.86 8.73563C128.879 8.72645 128.9 8.72274 128.921 8.7249C128.942 8.72707 128.962 8.73502 128.979 8.74788C128.996 8.76073 129.008 8.77798 129.016 8.79769C129.023 8.81739 129.025 8.83878 129.021 8.85945L128.486 11.497C128.483 11.515 128.484 11.5336 128.489 11.5513C128.494 11.5689 128.503 11.585 128.516 11.5983L130.39 13.5329C130.405 13.5481 130.415 13.5671 130.419 13.5877C130.424 13.6084 130.422 13.6299 130.415 13.6498C130.408 13.6697 130.396 13.6872 130.379 13.7003C130.363 13.7135 130.343 13.7217 130.322 13.7241L127.643 14.0322C127.624 14.0343 127.607 14.0408 127.592 14.0511C127.577 14.0615 127.564 14.0754 127.555 14.0916L126.29 16.4691C126.28 16.4877 126.265 16.5032 126.247 16.5138C126.228 16.5244 126.207 16.5296 126.186 16.529C126.165 16.5283 126.144 16.5218 126.127 16.5101C126.109 16.4985 126.095 16.4821 126.086 16.4629L124.965 14.0156C124.958 13.9989 124.946 13.9843 124.932 13.973C124.917 13.9617 124.9 13.9542 124.882 13.951L122.227 13.4851C122.206 13.4815 122.186 13.4721 122.171 13.458C122.155 13.4439 122.143 13.4257 122.137 13.4054C122.131 13.3851 122.131 13.3636 122.137 13.3432C122.143 13.3229 122.154 13.3045 122.17 13.2902L124.155 11.47C124.168 11.4575 124.178 11.442 124.185 11.4248C124.191 11.4075 124.193 11.3891 124.19 11.3709L123.814 8.7064C123.81 8.6852 123.813 8.66348 123.822 8.64378C123.83 8.62409 123.844 8.60721 123.862 8.59513C123.88 8.58304 123.9 8.57624 123.922 8.57551C123.943 8.57477 123.965 8.58015 123.983 8.591Z" fill="#FAFAFA"/>
<path d="M132.354 16.8179L130.394 18.1517L129.997 18.4212L128.433 19.4861C128.433 19.4861 139.085 29.2013 138.577 40.9939L143.25 37.8132L143.647 37.5438L148.715 34.0937C137.528 30.2608 132.354 16.8179 132.354 16.8179Z" fill="#0CBC8B"/>
<path d="M150.094 30.3345L134.568 40.9025C134.15 41.1871 134.043 41.7559 134.328 42.1731L137.832 47.3007C138.117 47.7179 138.687 47.8254 139.105 47.5409L154.631 36.9728C155.049 36.6883 155.156 36.1194 154.871 35.7022L151.367 30.5746C151.082 30.1575 150.512 30.0499 150.094 30.3345Z" fill="#0CBC8B"/>
<path d="M120.462 21.8678C119.711 22.3805 118.837 22.6844 117.93 22.7483C117.023 22.8122 116.115 22.6339 115.299 22.2317C114.484 21.8294 113.791 21.2177 113.291 20.4595C112.791 19.7013 112.502 18.8239 112.455 17.9174C112.407 17.011 112.602 16.1082 113.02 15.302C113.438 14.4957 114.063 13.815 114.832 13.3298C115.6 12.8446 116.485 12.5725 117.393 12.5413C118.302 12.5102 119.203 12.7212 120.004 13.1526C120.776 13.569 121.429 14.1766 121.898 14.9173C122.368 15.6579 122.639 16.5066 122.685 17.3819C122.731 18.2571 122.55 19.1294 122.161 19.915C121.772 20.7006 121.186 21.3731 120.462 21.8678ZM115.689 14.9087C115.09 15.3175 114.64 15.9108 114.41 16.5981C114.179 17.2854 114.18 18.0291 114.413 18.7159C114.645 19.4026 115.096 19.9947 115.696 20.402C116.297 20.8093 117.015 21.0094 117.74 20.9718C118.465 20.9342 119.159 20.6611 119.714 20.1939C120.269 19.7267 120.656 19.0912 120.816 18.3842C120.976 17.6771 120.899 16.9373 120.599 16.2775C120.298 15.6177 119.79 15.0741 119.151 14.7294C118.613 14.4402 118.005 14.304 117.395 14.3356C116.785 14.3672 116.195 14.5655 115.689 14.9087Z" fill="#0CBC8B"/>
<path d="M137.796 10.0704C137.611 10.1967 137.417 10.3108 137.216 10.4119C136.004 11.0231 134.598 11.1285 133.307 10.705C132.017 10.2815 130.948 9.36371 130.335 8.15355C129.723 6.94339 129.617 5.54 130.042 4.2521C130.466 2.96421 131.386 1.8973 132.598 1.2861C133.759 0.701546 135.098 0.579236 136.346 0.943963C137.594 1.30869 138.655 2.13316 139.317 3.25027C139.978 4.36739 140.188 5.69355 139.906 6.95998C139.624 8.2264 138.87 9.33833 137.796 10.0704ZM133.026 3.10834C132.498 3.46899 132.086 3.97368 131.838 4.56203C131.591 5.15039 131.518 5.79751 131.629 6.426C131.74 7.05448 132.03 7.63772 132.465 8.10595C132.899 8.57419 133.46 8.90759 134.079 9.06629C134.699 9.22499 135.351 9.20227 135.957 9.00084C136.564 8.79941 137.1 8.4278 137.501 7.93046C137.901 7.43312 138.15 6.83111 138.217 6.19642C138.284 5.56173 138.166 4.92124 137.878 4.35156C137.681 3.96217 137.409 3.61533 137.078 3.33083C136.746 3.04634 136.362 2.82977 135.947 2.69348C135.532 2.5572 135.094 2.50388 134.658 2.53656C134.222 2.56925 133.797 2.68729 133.407 2.88397C133.275 2.95038 133.148 3.02533 133.026 3.10834Z" fill="#0CBC8B"/>
<path d="M136.723 25.8799C136.582 25.6863 136.508 25.4518 136.512 25.2123C136.517 24.9727 136.599 24.7412 136.748 24.553C136.731 24.5436 136.683 24.5327 136.701 24.5035L135.875 24.9047C135.634 25.0282 135.357 25.0605 135.094 24.9957C134.831 24.9309 134.6 24.7733 134.445 24.552C134.298 24.3285 134.24 24.0588 134.282 23.7951C134.324 23.5313 134.462 23.2924 134.67 23.1245C134.66 23.1213 134.654 23.1102 134.645 23.1037L134.305 23.2687C134.078 23.3841 133.817 23.4175 133.568 23.3634C133.319 23.3092 133.096 23.1708 132.937 22.9715C132.84 22.8444 132.773 22.6975 132.739 22.5413C132.706 22.385 132.708 22.2234 132.745 22.068C132.782 21.9126 132.853 21.7674 132.953 21.6428C133.054 21.5181 133.18 21.4172 133.324 21.3473L134.107 20.9667C134.105 20.963 134.099 20.9625 134.097 20.958C134.095 20.9536 134.097 20.9464 134.096 20.9407C133.858 20.9963 133.608 20.9696 133.387 20.8649C133.166 20.7602 132.987 20.5837 132.88 20.3644C132.566 19.8156 133.03 19.1903 133.536 18.9444L135.193 18.293C135.448 18.1926 135.725 18.1569 135.997 18.1889C136.27 18.2209 136.531 18.3197 136.756 18.4765C138.707 19.8322 143.718 23.4943 142.101 24.2796L138.12 26.2128C137.883 26.3201 137.617 26.3457 137.364 26.2854C137.111 26.2251 136.886 26.0824 136.723 25.8799Z" fill="#E98862"/>
<path d="M14.2554 153.639H159.703C159.769 153.639 159.832 153.613 159.878 153.566C159.925 153.52 159.951 153.457 159.951 153.391C159.951 153.325 159.925 153.262 159.878 153.216C159.832 153.169 159.769 153.143 159.703 153.143H14.2554C14.1895 153.143 14.1264 153.169 14.0799 153.216C14.0333 153.262 14.0072 153.325 14.0072 153.391C14.0072 153.457 14.0333 153.52 14.0799 153.566C14.1264 153.613 14.1895 153.639 14.2554 153.639Z" fill="#292A2E"/>
<path d="M8.207 99.6113L6.35803 100.333L8.96601 106.991L10.815 106.27L8.207 99.6113Z" fill="#367CFF"/>
<path d="M158.184 79.2174L153.404 84.5432L154.883 85.865L159.662 80.5392L158.184 79.2174Z" fill="#367CFF"/>
<path d="M136.272 103.054L135.081 104.64L140.815 108.926L142.005 107.34L136.272 103.054Z" fill="#0CBC8B"/>
<path d="M50.1039 46.4382L44.8866 51.3379L46.247 52.7808L51.4644 47.881L50.1039 46.4382Z" fill="#367CFF"/>
<path d="M107.892 38.1271L106.171 39.1145L109.741 45.313L111.462 44.3256L107.892 38.1271Z" fill="#367CFF"/>
<path d="M37.6933 123.381L33.8701 129.427L35.549 130.485L39.3721 124.439L37.6933 123.381Z" fill="#0CBC8B"/>
<path d="M133.89 137.91L130.689 144.305L132.465 145.191L135.666 138.795L133.89 137.91Z" fill="#0CBC8B"/>
<path d="M159.873 121.082L157.972 121.65L160.029 128.499L161.931 127.93L159.873 121.082Z" fill="#367CFF"/>
<path d="M20.778 139.938L19.6722 141.584L25.6254 145.566L26.7311 143.92L20.778 139.938Z" fill="#367CFF"/>
<path d="M84.3397 22.7235L82.6187 23.7109L86.189 29.9093L87.91 28.9219L84.3397 22.7235Z" fill="#0CBC8B"/>
</g>
<defs>
<clipPath id="clip0">
<rect width="198" height="175" fill="white" transform="translate(0.5)"/>
</clipPath>
</defs>
</svg>
