<svg width="255" height="142" viewBox="0 0 255 142" fill="none" xmlns="http://www.w3.org/2000/svg">
<g clip-path="url(#clip0)">
<path d="M248.029 55.0972L245.336 61.9556L247.245 62.6984L249.938 55.84L248.029 55.0972Z" fill="#367CFF"/>
<path d="M79.8216 38.2795L78.2947 39.6409L83.2294 45.1262L84.7563 43.7648L79.8216 38.2795Z" fill="#0CBC8B"/>
<path d="M102.446 62.831L96.5256 67.2456L97.7545 68.879L103.675 64.4644L102.446 62.831Z" fill="#367CFF"/>
<path d="M170.917 12.1714L169.512 13.6575L174.899 18.704L176.304 17.2179L170.917 12.1714Z" fill="#367CFF"/>
<path d="M131.748 13.8123L128.061 20.1965L129.838 21.2136L133.525 14.8294L131.748 13.8123Z" fill="#0CBC8B"/>
<path d="M185.281 68.4076L183.548 69.4966L187.495 75.724L189.228 74.635L185.281 68.4076Z" fill="#0CBC8B"/>
<path d="M104.903 98.7321L103.07 99.644L106.375 106.231L108.209 105.319L104.903 98.7321Z" fill="#0CBC8B"/>
<path d="M78.0768 81.3994L75.9528 88.4529L77.9159 89.0388L80.0399 81.9853L78.0768 81.3994Z" fill="#367CFF"/>
<path d="M206.388 103.379L200.245 107.48L201.387 109.175L207.53 105.074L206.388 103.379Z" fill="#367CFF"/>
<path d="M207.309 0.500503L203.622 6.88452L205.399 7.90151L209.086 1.51749L207.309 0.500503Z" fill="#0CBC8B"/>
<path d="M2.40888 52.7288L0.499819 53.4717L3.19255 60.3301L5.10162 59.5872L2.40888 52.7288Z" fill="#0CBC8B"/>
<path d="M200.582 44.256L199.353 45.8894L205.273 50.304L206.502 48.6706L200.582 44.256Z" fill="#0CBC8B"/>
<path d="M34.2894 14.1683L28.9025 19.2148L30.3072 20.7009L35.6941 15.6544L34.2894 14.1683Z" fill="#367CFF"/>
<path d="M93.9554 8.15876L92.1784 9.17578L95.865 15.56L97.642 14.5429L93.9554 8.15876Z" fill="#367CFF"/>
<path d="M21.4755 88.3153L17.5281 94.5427L19.2616 95.6317L23.209 89.4043L21.4755 88.3153Z" fill="#0CBC8B"/>
<path d="M3.99123 105.375L2.84954 107.07L8.99616 111.172L10.1378 109.476L3.99123 105.375Z" fill="#367CFF"/>
<path d="M241.132 24.0519L239.355 25.0688L243.041 31.4529L244.818 30.4359L241.132 24.0519Z" fill="#367CFF"/>
<path d="M164.12 41.4499L159.186 46.9353L160.713 48.2967L165.647 42.8113L164.12 41.4499Z" fill="#367CFF"/>
<path d="M120.799 103.279L117.493 109.866L119.327 110.778L122.633 104.191L120.799 103.279Z" fill="#0CBC8B"/>
<path d="M147.627 85.9468L145.664 86.5327L147.788 93.5863L149.751 93.0004L147.627 85.9468Z" fill="#367CFF"/>
<path d="M148.288 89.9721L141.301 84.6852C141.148 84.5691 140.972 84.4861 140.784 84.4415C140.597 84.3968 140.402 84.3916 140.212 84.426C140.023 84.4604 139.842 84.5337 139.682 84.6413C139.523 84.7489 139.387 84.8884 139.285 85.051C139.105 85.357 139.046 85.7186 139.118 86.0657C139.191 86.4127 139.39 86.7206 139.678 86.9296L141.176 88.0632L134.822 86.6511C134.119 86.4817 133.146 86.7222 133.007 87.5206C132.934 87.8244 132.966 88.144 133.098 88.4273C133.231 88.7106 133.456 88.9409 133.736 89.0806C133.733 89.0868 133.73 89.0933 133.729 89.1C133.728 89.1053 133.728 89.1106 133.729 89.1158L132.643 88.8549C132.442 88.8067 132.233 88.8037 132.031 88.8462C131.828 88.8887 131.638 88.9756 131.474 89.1006C131.309 89.2256 131.175 89.3855 131.081 89.5687C130.986 89.7519 130.934 89.9538 130.928 90.1596C130.925 90.4838 131.034 90.7992 131.237 91.0531C131.439 91.307 131.723 91.4839 132.041 91.5543L132.502 91.6653C132.505 91.6801 132.511 91.6942 132.519 91.7071C132.189 91.7042 131.869 91.8181 131.617 92.0284C131.364 92.2387 131.194 92.5317 131.138 92.8549C131.087 93.2104 131.173 93.5719 131.378 93.8672C131.584 94.1625 131.893 94.37 132.245 94.4481L133.392 94.7241C133.374 94.7316 133.357 94.7435 133.343 94.7587C133.33 94.774 133.32 94.7922 133.316 94.8119C133.311 94.8356 133.313 94.8601 133.322 94.8825C133.028 94.961 132.768 95.1336 132.582 95.3736C132.396 95.6137 132.294 95.908 132.292 96.2112C132.297 96.5297 132.41 96.8373 132.612 97.0841C132.814 97.331 133.094 97.5027 133.407 97.5715L143.085 99.8993C144.439 100.225 145.859 100.14 147.165 99.6568C148.47 99.1734 149.601 98.3129 150.412 97.1856C151.112 96.2135 151.403 95.0082 151.224 93.8259C151.045 92.6436 150.409 91.5774 149.453 90.8539L148.288 89.9721Z" fill="#E98862"/>
<g opacity="0.2">
<path opacity="0.2" d="M140.019 90.5096C140.011 90.5419 139.99 90.5698 139.962 90.5873C139.933 90.6048 139.899 90.6105 139.866 90.6032L133.825 89.2513C133.808 89.2477 133.793 89.2408 133.779 89.2311C133.765 89.2215 133.754 89.2092 133.745 89.195C133.736 89.1809 133.73 89.1651 133.727 89.1486C133.724 89.1321 133.724 89.1152 133.728 89.0988C133.732 89.0825 133.739 89.067 133.748 89.0533C133.758 89.0396 133.77 89.028 133.785 89.019C133.799 89.0101 133.815 89.004 133.831 89.0011C133.848 88.9983 133.865 88.9987 133.881 89.0024L139.923 90.3543C139.939 90.3579 139.955 90.3648 139.968 90.3745C139.982 90.3842 139.994 90.3965 140.003 90.4107C140.012 90.4249 140.018 90.4408 140.021 90.4574C140.024 90.4739 140.023 90.4909 140.019 90.5073L140.019 90.5096Z" fill="#0C0C0C"/>
</g>
<g opacity="0.2">
<path opacity="0.2" d="M139.494 93.1787C139.486 93.2113 139.465 93.2394 139.436 93.257C139.408 93.2745 139.373 93.28 139.34 93.2723L132.598 91.7648C132.581 91.7611 132.566 91.7543 132.552 91.7446C132.538 91.7349 132.526 91.7226 132.517 91.7083C132.508 91.6941 132.502 91.6783 132.5 91.6617C132.497 91.6451 132.497 91.6282 132.501 91.6118C132.51 91.5793 132.53 91.5512 132.559 91.5333C132.587 91.5154 132.622 91.509 132.655 91.5154L139.397 93.0228C139.414 93.0265 139.429 93.0334 139.443 93.0431C139.457 93.0528 139.468 93.0651 139.477 93.0793C139.486 93.0935 139.493 93.1094 139.495 93.126C139.498 93.1425 139.498 93.1595 139.494 93.1759V93.1787Z" fill="#0C0C0C"/>
</g>
<g opacity="0.2">
<path opacity="0.2" d="M138.942 96.0728C138.934 96.1051 138.914 96.133 138.885 96.1505C138.857 96.168 138.822 96.1737 138.79 96.1664L133.412 94.964C133.378 94.9565 133.35 94.9363 133.331 94.9077C133.313 94.8792 133.307 94.8446 133.315 94.8115C133.322 94.7785 133.342 94.7498 133.371 94.7317C133.4 94.7136 133.435 94.7076 133.468 94.715L138.846 95.9174C138.862 95.9211 138.878 95.9279 138.892 95.9376C138.906 95.9473 138.917 95.9596 138.926 95.9738C138.936 95.988 138.942 96.0039 138.944 96.0205C138.947 96.0371 138.947 96.0541 138.943 96.0705L138.942 96.0728Z" fill="#0C0C0C"/>
</g>
<path d="M115.12 53.6078L119.021 45.7819C119.106 45.6099 119.227 45.4576 119.375 45.3346C119.523 45.2117 119.695 45.1208 119.881 45.0677C120.066 45.0146 120.26 45.0005 120.451 45.0264C120.642 45.0522 120.826 45.1173 120.99 45.2176C121.288 45.4121 121.503 45.7098 121.593 46.0529C121.683 46.3961 121.642 46.7602 121.477 47.0748L120.641 48.753L125.703 44.6787C126.258 44.2157 127.237 44.0012 127.717 44.6552C127.918 44.8949 128.032 45.1954 128.04 45.5077C128.048 45.8201 127.949 46.1259 127.76 46.3752C127.765 46.3793 127.771 46.384 127.775 46.3892C127.778 46.3937 127.781 46.3984 127.783 46.4032L128.639 45.689C128.797 45.5569 128.984 45.4617 129.184 45.4103C129.384 45.3589 129.593 45.3526 129.796 45.392C129.999 45.4313 130.191 45.5152 130.357 45.6376C130.524 45.76 130.66 45.9178 130.758 46.0994C130.905 46.3886 130.948 46.7194 130.88 47.0364C130.812 47.3535 130.636 47.6376 130.383 47.8413L130.018 48.1451C130.022 48.1596 130.024 48.1748 130.022 48.1898C130.316 48.0414 130.653 48.0019 130.974 48.0784C131.294 48.1549 131.577 48.3424 131.771 48.6073C131.975 48.9035 132.059 49.2654 132.007 49.6207C131.955 49.976 131.77 50.2986 131.489 50.5242L130.585 51.2784C130.605 51.2767 130.625 51.2798 130.644 51.2875C130.663 51.2952 130.68 51.3073 130.693 51.3228C130.708 51.3421 130.717 51.3652 130.719 51.3894C131.017 51.3295 131.328 51.369 131.601 51.5018C131.875 51.6346 132.098 51.8533 132.234 52.1243C132.372 52.4117 132.409 52.737 132.338 53.0476C132.267 53.3582 132.092 53.6358 131.843 53.8355L124.21 60.2007C123.143 61.0912 121.832 61.6439 120.447 61.788C119.061 61.9321 117.664 61.661 116.435 61.0095C115.375 60.4478 114.576 59.4968 114.209 58.3585C113.842 57.2202 113.936 55.9842 114.469 54.9132L115.12 53.6078Z" fill="#E98862"/>
<g opacity="0.2">
<path opacity="0.2" d="M122.768 50.4326C122.79 50.4583 122.821 50.4745 122.854 50.4776C122.888 50.4807 122.921 50.4705 122.948 50.4492L127.758 46.5675C127.784 46.5462 127.801 46.5153 127.804 46.4817C127.808 46.448 127.798 46.4143 127.777 46.388C127.755 46.3618 127.724 46.345 127.69 46.3415C127.657 46.338 127.623 46.348 127.596 46.3693L122.786 50.251C122.76 50.2723 122.743 50.303 122.74 50.3364C122.736 50.3699 122.746 50.4033 122.767 50.4296L122.768 50.4326Z" fill="#0C0C0C"/>
</g>
<g opacity="0.2">
<path opacity="0.2" d="M124.429 52.5919C124.451 52.6175 124.482 52.6337 124.516 52.6367C124.549 52.6398 124.583 52.6295 124.609 52.6082L129.977 48.2763C130.003 48.255 130.02 48.2243 130.023 48.1908C130.027 48.1574 130.017 48.1239 129.996 48.0977C129.974 48.0726 129.943 48.0567 129.91 48.0532C129.876 48.0497 129.843 48.0589 129.816 48.0789L124.446 52.41C124.42 52.4313 124.403 52.462 124.4 52.4954C124.396 52.5288 124.406 52.5623 124.427 52.5886L124.429 52.5919Z" fill="#0C0C0C"/>
</g>
<g opacity="0.2">
<path opacity="0.2" d="M126.215 54.9407C126.236 54.9664 126.267 54.9826 126.301 54.9857C126.335 54.9888 126.368 54.9786 126.394 54.9573L130.676 51.5018C130.703 51.4805 130.719 51.4496 130.723 51.416C130.727 51.3823 130.716 51.3487 130.695 51.3224C130.674 51.2961 130.643 51.2794 130.609 51.2758C130.575 51.2723 130.541 51.2823 130.515 51.3036L126.232 54.7591C126.206 54.7804 126.189 54.8111 126.185 54.8445C126.182 54.8779 126.192 54.9114 126.213 54.9377L126.215 54.9407Z" fill="#0C0C0C"/>
</g>
<path d="M27.5818 46.8979C27.5818 46.8979 27.0317 55.1151 25.175 58.0956C19.8288 66.6783 18.28 76.3334 23.6336 81.378C28.9872 86.4226 63.1341 86.4924 65.7211 74.8902C67.8989 65.1221 63.2253 64.0717 62.088 56.0147C61.5735 52.3687 60.1579 44.7234 60.1579 44.7234" fill="#0A0A0A"/>
<path d="M56.8835 73.189C56.8246 73.1814 56.1705 83.9865 43.5619 83.0445C34.8332 82.3933 31.721 73.1732 31.5211 73.1732C32.4622 72.974 34.0469 72.6845 34.4648 72.4623C35.8394 71.7272 37.5394 70.962 37.9831 68.3046C38.2393 66.7742 37.805 58.9378 37.9385 57.3875L51.337 60.3657C51.1497 63.6385 49.8394 71.2255 54.4321 72.5682C55.1961 72.7908 56.0193 72.9952 56.8835 73.189Z" fill="#E98862"/>
<path opacity="0.5" d="M51.5248 69.468C51.3149 68.7946 51.1798 68.1004 51.1218 67.3978C50.9746 65.7944 51.0039 64.1798 51.2094 62.5828C48.4863 62.2168 45.9209 61.0978 43.8048 59.3528C43.556 60.2675 42.1876 64.2645 42.5665 65.1338C43.2821 66.7772 46.647 69.468 51.5248 69.468Z" fill="#0C0C0C"/>
<path d="M49.7923 66.102C44.5097 66.6121 37.6749 64.5072 36.2591 57.5037L34.9816 51.1845C33.5657 44.1812 36.1128 37.7636 42.7362 36.4364C49.3598 35.11 55.4582 39.7945 56.8741 46.798L57.4398 49.5957C57.983 52.2829 59.2171 65.1939 49.7923 66.102Z" fill="#E98862"/>
<path opacity="0.1" d="M46.4343 56.9243C47.3037 56.821 47.9467 56.2227 47.8706 55.5879C47.7946 54.9532 47.0282 54.5223 46.1588 54.6255C45.2895 54.7288 44.6465 55.3271 44.7226 55.9619C44.7986 56.5967 45.565 57.0275 46.4343 56.9243Z" fill="#0C0C0C"/>
<path opacity="0.1" d="M55.6201 54.3866C55.697 55.0204 56.4644 55.4507 57.3337 55.3487C57.4839 55.3307 57.6319 55.2973 57.7752 55.249C57.8156 54.4932 57.8179 53.7662 57.7959 53.0931C57.5545 53.0329 57.3038 53.0183 57.057 53.05C56.1877 53.152 55.5448 53.7501 55.6201 54.3866Z" fill="#0C0C0C"/>
<path opacity="0.5" d="M51.779 56.3457C51.7833 56.3452 51.7875 56.3446 51.7918 56.3436C52.0602 56.288 52.3254 56.2175 52.586 56.1327C52.975 56.0031 53.4828 55.7904 53.4131 55.4402C53.3326 55.0412 51.3634 50.9557 51.14 50.4918C51.1308 50.4708 51.1175 50.4519 51.1009 50.4362C51.0842 50.4205 51.0645 50.4083 51.043 50.4003C51.0215 50.3924 50.9986 50.3888 50.9757 50.3898C50.9528 50.3909 50.9303 50.3965 50.9096 50.4064C50.889 50.4163 50.8705 50.4302 50.8553 50.4473C50.8402 50.4645 50.8287 50.4845 50.8215 50.5062C50.8143 50.5279 50.8115 50.5508 50.8134 50.5736C50.8153 50.5963 50.8218 50.6185 50.8325 50.6387C51.6721 52.3785 53.0244 55.2392 53.0787 55.5078C53.0362 55.633 52.3911 55.8776 51.7252 56.0113C51.7031 56.0148 51.6819 56.0227 51.6629 56.0344C51.6438 56.0461 51.6273 56.0614 51.6142 56.0794C51.6011 56.0975 51.5917 56.118 51.5865 56.1396C51.5814 56.1613 51.5805 56.1838 51.5841 56.2058C51.5877 56.2278 51.5956 56.2488 51.6073 56.2678C51.6191 56.2867 51.6344 56.3032 51.6526 56.3163C51.6707 56.3293 51.6913 56.3386 51.713 56.3438C51.7348 56.3489 51.7574 56.3497 51.7795 56.3462L51.779 56.3457Z" fill="#0C0C0C"/>
<path d="M29.6966 53.4533L35.6347 52.2985C40.1202 50.4312 41.3928 42.6486 41.3928 42.6486C41.3928 42.6486 46.9286 47.8973 60.159 44.7234C60.159 44.7234 57.285 26.3361 37.7492 31.9187C31.4502 33.7182 26.9882 40.1104 27.6518 48.5768C28.1168 54.5083 29.6966 53.4533 29.6966 53.4533Z" fill="#0A0A0A"/>
<path d="M37.1017 59.555C35.0889 59.9582 33.0238 58.1413 32.618 56.137C32.2121 54.1326 33.6213 52.7011 35.6341 52.2976L36.9429 53.4327L38.8319 59.2078L37.1017 59.555Z" fill="#E98862"/>
<path d="M52.5668 47.2338C53.0704 46.8793 53.6594 46.6639 54.2737 46.6094C54.5825 46.5799 54.8939 46.5971 55.1974 46.6604C55.5035 46.7225 55.8005 46.8226 56.0816 46.9583L56.0903 46.9624C56.1215 46.9761 56.1567 46.9771 56.1886 46.9653C56.2205 46.9534 56.2465 46.9296 56.261 46.8989C56.2755 46.8682 56.2773 46.8331 56.2662 46.8011C56.255 46.7691 56.2317 46.7427 56.2013 46.7275C55.9034 46.571 55.587 46.4524 55.2594 46.3745C54.9295 46.2946 54.5895 46.2646 54.2507 46.2855C53.5644 46.3232 52.9008 46.5434 52.3291 46.9231C52.3078 46.9375 52.2895 46.9559 52.2753 46.9774C52.2612 46.9988 52.2514 47.0227 52.2466 47.0479C52.2417 47.0731 52.2419 47.099 52.2472 47.1241C52.2524 47.1492 52.2625 47.173 52.277 47.1942C52.2915 47.2154 52.3101 47.2335 52.3316 47.2475C52.3532 47.2616 52.3773 47.2713 52.4026 47.276C52.4279 47.2808 52.4539 47.2805 52.4791 47.2752C52.5043 47.27 52.5282 47.2598 52.5494 47.2453L52.554 47.2422L52.5668 47.2338Z" fill="#0C0C0C"/>
<path d="M47.1425 47.9803C46.4682 47.8467 45.7703 47.8957 45.1215 48.1223C44.8008 48.2323 44.4986 48.3895 44.2248 48.5889C43.9521 48.7856 43.7053 49.0158 43.4905 49.274C43.4688 49.2996 43.4579 49.3327 43.4601 49.3662C43.4623 49.3996 43.4775 49.4309 43.5024 49.4535C43.5273 49.4761 43.5601 49.4883 43.5938 49.4873C43.6274 49.4864 43.6595 49.4726 43.6831 49.4487L43.6901 49.4415C43.8974 49.209 44.1332 49.0034 44.3921 48.8294C44.6482 48.6554 44.9293 48.521 45.2258 48.4307C45.8143 48.2467 46.4413 48.2211 47.0429 48.3567L47.0577 48.3606C47.1082 48.3727 47.1615 48.3644 47.2058 48.3375C47.2502 48.3106 47.282 48.2672 47.2942 48.217C47.3064 48.1667 47.2981 48.1137 47.2711 48.0695C47.244 48.0254 47.2005 47.9937 47.15 47.9815L47.1425 47.9803Z" fill="#0C0C0C"/>
<path d="M35.6388 52.2011C39.6303 50.7216 40.9549 47.9776 41.3628 45.9354C41.6268 44.5735 41.6021 43.1717 41.2903 41.8198L41.1668 41.8537C41.474 43.188 41.4977 44.5714 41.2365 45.9153C40.8337 47.924 39.5281 50.6242 35.5939 52.082L35.6388 52.2011Z" fill="#0C0C0C"/>
<path d="M67.1523 74.4745L105.053 87.0871L93.9257 92.0113L112.824 53.4136L128.27 60.5796L110.735 99.8099C109.848 101.794 108.274 103.394 106.3 104.317C104.326 105.241 102.084 105.427 99.9841 104.841L99.6072 104.734L61.1326 93.9805L67.1523 74.4745Z" fill="#367CFF"/>
<path d="M43.3267 80.3434C34.5919 79.9335 34.2242 72.5527 34.2242 72.5527C34.2242 72.5527 29.8962 72.8313 27.0192 73.2187C22.3089 73.8531 19.2016 75.4432 16.7286 77.9049C14.4283 80.1952 13.0278 82.673 14.5098 98.4922C15.5828 109.947 14.8278 135.141 14.8278 135.141H68.0563C68.0563 135.141 71.7732 98.7419 72.2139 93.5866C73.0547 83.7436 75.4306 81.5706 70.6169 76.5003C67.1259 72.8231 58.1136 72.5527 54.4861 72.5532C54.4269 72.5532 55.2222 80.9018 43.3267 80.3434Z" fill="#367CFF"/>
<path d="M53.5496 57.7261C51.8333 58.5949 49.8751 58.8696 47.9844 58.5069C47.9189 58.4946 47.8514 58.5012 47.7895 58.5258C47.7277 58.5504 47.6741 58.592 47.6351 58.6458C47.5962 58.6996 47.5733 58.7632 47.5694 58.8294C47.5654 58.8956 47.5804 58.9616 47.6126 59.0196C48.1763 60.0082 49.5132 61.6978 51.8069 61.0091C53.2878 60.5643 53.8476 59.0476 54.0551 58.1092C54.0693 58.0443 54.0646 57.9767 54.0416 57.9144C54.0185 57.8521 53.9781 57.7976 53.925 57.7573C53.8719 57.7171 53.8084 57.6928 53.7419 57.6872C53.6754 57.6817 53.6087 57.6952 53.5496 57.7261Z" fill="white"/>
<path d="M53.657 50.1269C54.115 50.1269 54.4864 49.7573 54.4864 49.3013C54.4864 48.8453 54.115 48.4756 53.657 48.4756C53.1989 48.4756 52.8276 48.8453 52.8276 49.3013C52.8276 49.7573 53.1989 50.1269 53.657 50.1269Z" fill="#0C0C0C"/>
<path d="M45.6877 51.5161C46.1458 51.5161 46.5171 51.1464 46.5171 50.6904C46.5171 50.2344 46.1458 49.8647 45.6877 49.8647C45.2297 49.8647 44.8584 50.2344 44.8584 50.6904C44.8584 51.1464 45.2297 51.5161 45.6877 51.5161Z" fill="#0C0C0C"/>
<path d="M72.0955 97.1729C72.0901 97.1733 72.0847 97.1733 72.0793 97.1729C72.0457 97.1687 72.0151 97.1514 71.9942 97.1248C71.9734 97.0982 71.964 97.0644 71.9681 97.0309L72.7924 90.3791C72.7941 90.3623 72.7992 90.3461 72.8074 90.3314C72.8156 90.3167 72.8267 90.3038 72.84 90.2935C72.8534 90.2832 72.8687 90.2756 72.885 90.2713C72.9013 90.267 72.9183 90.266 72.9351 90.2684C72.9518 90.2704 72.9679 90.2757 72.9826 90.284C72.9972 90.2922 73.0101 90.3033 73.0204 90.3165C73.0308 90.3297 73.0384 90.3449 73.0429 90.361C73.0474 90.3772 73.0486 90.3941 73.0465 90.4107L72.2223 97.0622C72.2182 97.0929 72.2031 97.1209 72.1798 97.1413C72.1564 97.1617 72.1265 97.1729 72.0955 97.1729Z" fill="#0C0C0C"/>
<path d="M206.829 45.8464C206.829 45.8464 203.654 42.2965 204.022 35.6486C204.308 30.5012 208.296 34.664 208.296 34.664C208.296 34.664 208.537 30.9595 211.106 31.8416C213.674 32.7236 214.395 36.8084 214.395 36.8084" fill="#0C0C0C"/>
<path d="M224.674 34.9729C224.674 34.9729 237.498 38.9722 229.221 55.7104L228.046 55.5573L225.661 55.2474" fill="#0C0C0C"/>
<path d="M206.43 73.1618C206.489 73.1541 207.141 83.9233 219.707 82.9847C228.407 82.3357 231.509 73.1467 231.708 73.1467C230.77 72.948 229.191 72.6595 228.774 72.4381C227.404 71.7053 225.709 70.9429 225.268 68.2945C225.013 66.7679 225.445 58.9588 225.312 57.4141L211.958 60.3813C212.145 63.6432 213.451 71.2051 208.873 72.5435C208.112 72.7649 207.29 72.9684 206.43 73.1618Z" fill="#E98862"/>
<path opacity="0.52" d="M211.771 69.4533C211.98 68.7821 212.115 68.0902 212.172 67.3898C212.319 65.7917 212.29 64.1824 212.085 62.5906C214.8 62.226 217.357 61.1107 219.466 59.3716C219.714 60.2832 221.078 64.2669 220.7 65.1334C219.986 66.7712 216.632 69.4533 211.771 69.4533Z" fill="#0C0C0C"/>
<path d="M213.372 65.8064C218.631 66.3704 225.466 64.3474 226.953 57.3829L228.295 51.0986C229.781 44.1351 227.314 37.7106 220.727 36.3166C214.14 34.9227 208.011 39.5267 206.524 46.4913L205.93 49.2733C205.743 50.2321 205.621 51.2024 205.566 52.1776C205.403 54.7539 205.164 58.6731 206.358 61.5931C207.485 64.35 210.012 65.446 213.372 65.8064Z" fill="#E98862"/>
<path d="M209.195 49.7617C209.653 49.7617 210.024 49.392 210.024 48.936C210.024 48.48 209.653 48.1104 209.195 48.1104C208.737 48.1104 208.365 48.48 208.365 48.936C208.365 49.392 208.737 49.7617 209.195 49.7617Z" fill="#0C0C0C"/>
<path d="M217.072 50.5874C217.53 50.5874 217.901 50.2177 217.901 49.7617C217.901 49.3057 217.53 48.936 217.072 48.936C216.614 48.936 216.242 49.3057 216.242 49.7617C216.242 50.2177 216.614 50.5874 217.072 50.5874Z" fill="#0C0C0C"/>
<path d="M226.091 59.4182C228.093 59.8419 230.171 58.0533 230.596 56.0604C231.022 54.0675 229.634 52.6253 227.632 52.2017L226.315 53.3186L224.37 59.054L226.091 59.4182Z" fill="#E98862"/>
<path d="M224.739 55.8115C224.739 55.8115 226.039 45.7971 223.152 44.5898C221.23 43.7858 215.802 45.6514 211.472 43.9034C209.577 43.1382 207.61 43.253 207.235 44.1414C207.086 44.4931 206.914 38.98 210.799 35.5926C213.892 32.8954 222.108 33.591 225.555 35.3607C235.099 40.2604 227.96 52.7187 227.96 52.7187L226.827 56.0347L224.739 55.8115Z" fill="#0C0C0C"/>
<g opacity="0.52">
<path opacity="0.52" d="M211.352 56.528L211.339 56.526C210.694 56.3911 209.626 56.0924 209.727 55.6126C209.811 55.2144 211.812 51.1439 212.041 50.6812C212.06 50.6414 212.095 50.611 212.137 50.5966C212.179 50.5823 212.225 50.5852 212.265 50.6047C212.305 50.6242 212.336 50.6588 212.35 50.7007C212.365 50.7427 212.362 50.7886 212.342 50.8284C211.454 52.6308 210.113 55.4106 210.056 55.6812C210.096 55.8087 210.74 56.059 211.408 56.1985C211.45 56.2078 211.487 56.2329 211.511 56.2684C211.535 56.3039 211.544 56.3472 211.537 56.3895C211.53 56.4317 211.507 56.4696 211.472 56.4954C211.438 56.5212 211.395 56.5328 211.352 56.528Z" fill="#0C0C0C"/>
</g>
<path d="M211.203 46.3531C210.569 46.0346 209.861 45.8921 209.152 45.9407C208.804 45.9625 208.461 46.0362 208.134 46.1593C207.812 46.2796 207.505 46.44 207.223 46.6368C207.176 46.6667 207.142 46.7139 207.13 46.7682C207.117 46.8226 207.127 46.8796 207.156 46.9271C207.185 46.9745 207.232 47.0086 207.287 47.0219C207.341 47.0352 207.398 47.0267 207.447 46.9982L207.461 46.9898C207.72 46.8299 207.998 46.7031 208.289 46.6123C208.576 46.5211 208.875 46.4737 209.175 46.4718C209.77 46.4631 210.356 46.611 210.875 46.9005L210.895 46.912C210.931 46.9336 210.971 46.9477 211.013 46.9537C211.055 46.9597 211.098 46.9574 211.138 46.9469C211.179 46.9365 211.218 46.918 211.252 46.8927C211.285 46.8674 211.314 46.8356 211.335 46.7993C211.357 46.763 211.371 46.7229 211.376 46.6812C211.382 46.6395 211.379 46.5971 211.369 46.5564C211.358 46.5157 211.339 46.4775 211.313 46.4441C211.288 46.4107 211.256 46.3826 211.219 46.3616L211.203 46.3531Z" fill="#0C0C0C"/>
<path d="M215.946 47.6293C216.522 47.4822 217.127 47.4892 217.699 47.6495C217.989 47.7285 218.266 47.8507 218.519 48.012C218.777 48.1742 219.013 48.3679 219.222 48.5887L219.233 48.6002C219.273 48.6383 219.325 48.6597 219.38 48.6601C219.435 48.6604 219.488 48.6396 219.528 48.6019C219.568 48.5643 219.592 48.5127 219.595 48.458C219.598 48.4033 219.579 48.3497 219.543 48.3083C219.321 48.046 219.066 47.8127 218.786 47.6138C218.502 47.4115 218.189 47.2526 217.859 47.1424C217.186 46.9139 216.465 46.8698 215.77 47.0149C215.729 47.0238 215.69 47.0407 215.655 47.0646C215.62 47.0885 215.591 47.119 215.568 47.1543C215.522 47.2255 215.507 47.312 215.525 47.3947C215.543 47.4774 215.593 47.5495 215.665 47.5953C215.736 47.641 215.823 47.6566 215.906 47.6385L215.923 47.6344L215.946 47.6293Z" fill="#0C0C0C"/>
<path d="M210.337 58.073C212.205 58.5377 214.176 58.3693 215.937 57.5945C215.998 57.568 216.065 57.5594 216.131 57.5696C216.197 57.5798 216.258 57.6084 216.309 57.6521C216.359 57.6958 216.395 57.7528 216.414 57.8164C216.433 57.88 216.433 57.9476 216.415 58.0113C216.087 59.1007 215.164 61.0467 212.774 60.8855C211.231 60.7819 210.344 59.4282 209.93 58.56C209.901 58.4998 209.891 58.4326 209.899 58.3666C209.907 58.3005 209.935 58.2381 209.977 58.1869C210.02 58.1358 210.077 58.0978 210.141 58.0776C210.205 58.0575 210.273 58.0559 210.337 58.073Z" fill="white"/>
<path d="M217.75 37.0194C218.643 34.9335 218.212 32.753 216.789 32.1493C215.365 31.5456 213.487 32.7472 212.595 34.8331C211.702 36.9191 212.133 39.0995 213.556 39.7033C214.98 40.307 216.857 39.1054 217.75 37.0194Z" fill="#0C0C0C"/>
<path d="M219.903 80.3434C228.637 79.9335 229.005 72.5527 229.005 72.5527C229.005 72.5527 233.333 72.8313 236.21 73.2187C240.921 73.8531 244.028 75.4432 246.501 77.9049C248.801 80.1952 250.201 82.673 248.72 98.4922C247.647 109.947 248.402 135.141 248.402 135.141H195.173C195.173 135.141 191.456 98.7429 191.016 93.5866C190.175 83.7436 187.799 81.5706 192.612 76.5003C196.103 72.8231 205.116 72.5527 208.743 72.5532C208.802 72.5532 208.008 80.9018 219.903 80.3434Z" fill="#367CFF"/>
<path d="M190.89 78.7798L177.128 107.826L149.988 87.5074L139.209 101.778L175.146 128.682C175.467 128.92 175.803 129.138 176.152 129.335C177.179 129.908 178.309 130.273 179.477 130.411C180.646 130.549 181.831 130.457 182.964 130.139C184.097 129.821 185.156 129.284 186.08 128.559C187.004 127.833 187.776 126.934 188.352 125.912L188.507 125.635L209.503 88.3262L190.89 78.7798Z" fill="#367CFF"/>
<path d="M250.444 135.396H8.04422C7.97626 135.396 7.9111 135.369 7.86305 135.321C7.815 135.273 7.788 135.208 7.788 135.141C7.788 135.073 7.815 135.008 7.86305 134.96C7.9111 134.913 7.97626 134.886 8.04422 134.886H250.444C250.512 134.886 250.577 134.913 250.625 134.96C250.673 135.008 250.7 135.073 250.7 135.141C250.7 135.208 250.673 135.273 250.625 135.321C250.577 135.369 250.512 135.396 250.444 135.396Z" fill="#292A2E"/>
<path d="M197.72 97.2009H67.9173V141.372H197.72V97.2009Z" fill="white"/>
<path d="M197.848 141.5H67.7892V97.0735H197.848V141.5ZM68.0455 141.245H197.592V97.3286H68.0455V141.245Z" fill="#0C0C0C"/>
<path d="M61.5079 110.701L69.5205 107.138C69.6966 107.06 69.8871 107.019 70.0799 107.018C70.2727 107.017 70.4636 107.056 70.6405 107.132C70.8173 107.209 70.9762 107.321 71.107 107.462C71.2378 107.603 71.3377 107.77 71.4004 107.952C71.5055 108.29 71.4806 108.656 71.3304 108.977C71.1802 109.299 70.9154 109.553 70.5874 109.691L68.8692 110.457L75.3799 110.523C76.1039 110.518 76.9956 110.973 76.9479 111.782C76.95 112.094 76.8456 112.398 76.6519 112.644C76.4581 112.89 76.1864 113.063 75.881 113.135C75.8828 113.142 75.8838 113.149 75.8841 113.156C75.8834 113.161 75.8822 113.167 75.8808 113.172L76.9974 113.164C77.204 113.162 77.4083 113.207 77.5955 113.294C77.7826 113.381 77.9479 113.509 78.0792 113.668C78.2106 113.827 78.3047 114.013 78.3548 114.212C78.4048 114.412 78.4096 114.62 78.3686 114.822C78.2974 115.138 78.1192 115.421 77.8638 115.622C77.6084 115.823 77.2913 115.931 76.9656 115.927L76.4906 115.931C76.4843 115.945 76.4756 115.957 76.4649 115.968C76.7864 116.04 77.0717 116.223 77.2698 116.485C77.4679 116.747 77.566 117.071 77.5464 117.398C77.5146 117.756 77.3485 118.089 77.0811 118.33C76.8138 118.571 76.4649 118.703 76.1042 118.699L74.9241 118.708C74.9407 118.719 74.9543 118.734 74.9639 118.752C74.9735 118.77 74.9788 118.789 74.9794 118.81C74.9784 118.834 74.9704 118.857 74.9563 118.877C75.2248 119.02 75.4387 119.247 75.5649 119.523C75.6911 119.799 75.7228 120.108 75.655 120.404C75.5775 120.713 75.3975 120.987 75.1442 121.181C74.8908 121.376 74.579 121.479 74.2592 121.475L64.3027 121.546C62.91 121.556 61.546 121.151 60.3855 120.385C59.2251 119.618 58.3212 118.523 57.7895 117.242C57.3311 116.137 57.3235 114.897 57.7685 113.787C58.2134 112.676 59.0757 111.782 60.1723 111.294L61.5079 110.701Z" fill="#E98862"/>
<g opacity="0.2">
<path opacity="0.2" d="M69.4362 113.1C69.4367 113.134 69.4504 113.166 69.4744 113.189C69.4983 113.213 69.5307 113.226 69.5643 113.226L75.756 113.281C75.79 113.281 75.8227 113.268 75.8469 113.245C75.8712 113.221 75.8849 113.189 75.8852 113.155C75.8856 113.121 75.8723 113.088 75.8485 113.064C75.8247 113.04 75.7923 113.026 75.7583 113.026L69.5666 112.97C69.5327 112.97 69.5001 112.984 69.476 113.008C69.452 113.032 69.4385 113.064 69.4385 113.098L69.4362 113.1Z" fill="#0C0C0C"/>
</g>
<g opacity="0.2">
<path opacity="0.2" d="M69.3363 115.819C69.3368 115.852 69.3505 115.884 69.3745 115.908C69.3984 115.931 69.4308 115.945 69.4644 115.945L76.3743 116.007C76.4082 116.007 76.4408 115.993 76.4649 115.969C76.4889 115.945 76.5024 115.913 76.5024 115.879C76.5012 115.846 76.4874 115.814 76.4636 115.79C76.4398 115.766 76.4079 115.753 76.3743 115.751L69.4644 115.689C69.4475 115.689 69.4307 115.692 69.415 115.699C69.3993 115.705 69.385 115.715 69.373 115.726C69.361 115.738 69.3514 115.752 69.3449 115.768C69.3384 115.783 69.335 115.8 69.335 115.817L69.3363 115.819Z" fill="#0C0C0C"/>
</g>
<g opacity="0.2">
<path opacity="0.2" d="M69.211 118.761C69.2115 118.794 69.2252 118.826 69.2492 118.85C69.2732 118.873 69.3055 118.887 69.3391 118.887L74.8511 118.936C74.885 118.936 74.9177 118.923 74.942 118.9C74.9662 118.876 74.98 118.844 74.9803 118.81C74.9806 118.776 74.9674 118.743 74.9436 118.719C74.9198 118.695 74.8873 118.681 74.8534 118.681L69.3414 118.632C69.3075 118.632 69.2749 118.645 69.2509 118.669C69.2268 118.693 69.2133 118.725 69.2133 118.759L69.211 118.761Z" fill="#0C0C0C"/>
</g>
<path d="M63.8013 124.904L19.3771 134.958C17.9013 135.117 16.4084 134.935 15.0154 134.424C13.6225 133.913 12.3674 133.087 11.3487 132.012C10.33 130.937 9.57537 129.642 9.14402 128.228C8.71267 126.814 8.61633 125.319 8.86257 123.862L13.9464 83.1521C14.3692 80.6504 15.7729 78.4184 17.8488 76.947C19.9246 75.4757 22.5026 74.8855 25.0155 75.3064C27.5284 75.7274 29.7704 77.1248 31.2483 79.1915C32.7263 81.2581 33.319 83.8245 32.8962 86.3263L30.4481 115.465L61.3127 108.511L63.8013 124.904Z" fill="#367CFF"/>
<path d="M24.2024 116.609C24.1702 116.609 24.1393 116.597 24.1158 116.575C24.0923 116.553 24.078 116.523 24.0757 116.491C24.0733 116.459 24.0831 116.428 24.1031 116.403C24.1231 116.377 24.1519 116.361 24.1837 116.356L30.374 115.04C30.3907 115.037 30.4077 115.038 30.4241 115.042C30.4405 115.046 30.456 115.053 30.4695 115.063C30.4831 115.073 30.4945 115.086 30.5031 115.1C30.5117 115.114 30.5173 115.13 30.5196 115.147C30.5246 115.181 30.516 115.215 30.4959 115.242C30.4757 115.269 30.4455 115.287 30.412 115.292L24.2216 116.608C24.2152 116.609 24.2088 116.609 24.2024 116.609Z" fill="#0C0C0C"/>
<path d="M20.7099 135.141C20.6759 135.143 20.6425 135.132 20.6169 135.109C20.5913 135.087 20.5757 135.055 20.5735 135.021C20.5713 134.988 20.5826 134.954 20.6051 134.929C20.6276 134.903 20.6593 134.888 20.6933 134.886L63.5225 124.843L61.0957 108.697L30.4153 115.291C30.3955 115.293 30.3753 115.291 30.3564 115.284C30.3376 115.278 30.3204 115.267 30.3064 115.253C30.2924 115.239 30.282 115.221 30.2761 115.202C30.2701 115.183 30.2687 115.163 30.2721 115.143L31.9931 98.4943C31.9956 98.4777 32.0015 98.4618 32.0104 98.4475C32.0193 98.4331 32.0309 98.4207 32.0447 98.411C32.0584 98.4012 32.074 98.3943 32.0905 98.3907C32.107 98.387 32.124 98.3867 32.1407 98.3897C32.1742 98.3954 32.204 98.414 32.2237 98.4416C32.2434 98.4691 32.2513 98.5033 32.2457 98.5367L30.5547 115.014L61.1554 108.416C61.1718 108.411 61.189 108.41 61.206 108.412C61.2229 108.414 61.2393 108.42 61.254 108.428C61.2687 108.437 61.2816 108.449 61.2918 108.462C61.3021 108.476 61.3095 108.491 61.3137 108.508L63.8023 124.902C63.8102 124.934 63.8051 124.968 63.7882 124.997C63.7714 125.025 63.744 125.046 63.7119 125.055L20.7266 135.14C20.721 135.14 20.7155 135.141 20.7099 135.141Z" fill="#0C0C0C"/>
<path d="M201.721 118.353L193.709 114.79C193.533 114.712 193.342 114.671 193.149 114.67C192.957 114.669 192.766 114.708 192.589 114.785C192.412 114.861 192.253 114.974 192.122 115.115C191.992 115.256 191.892 115.422 191.829 115.604C191.724 115.942 191.749 116.308 191.899 116.629C192.049 116.951 192.314 117.205 192.642 117.344L194.36 118.109L187.849 118.176C187.126 118.17 186.234 118.625 186.282 119.434C186.28 119.746 186.384 120.05 186.578 120.296C186.771 120.542 187.043 120.715 187.349 120.788C187.347 120.794 187.346 120.801 187.345 120.808C187.346 120.813 187.347 120.819 187.349 120.824L186.232 120.816C186.026 120.815 185.821 120.859 185.634 120.946C185.447 121.033 185.282 121.161 185.15 121.32C185.019 121.479 184.925 121.665 184.875 121.864C184.824 122.064 184.82 122.272 184.861 122.474C184.932 122.79 185.11 123.073 185.366 123.274C185.621 123.475 185.938 123.583 186.264 123.58L186.739 123.583C186.745 123.597 186.754 123.609 186.765 123.62C186.443 123.692 186.158 123.875 185.96 124.137C185.762 124.399 185.664 124.723 185.683 125.05C185.715 125.408 185.881 125.741 186.149 125.982C186.416 126.223 186.765 126.355 187.126 126.351L188.306 126.36C188.289 126.371 188.275 126.386 188.266 126.404C188.256 126.422 188.251 126.441 188.25 126.462C188.251 126.486 188.259 126.509 188.273 126.529C188.005 126.672 187.791 126.899 187.665 127.175C187.539 127.451 187.507 127.76 187.575 128.056C187.652 128.365 187.832 128.639 188.086 128.833C188.339 129.028 188.651 129.131 188.971 129.127L198.927 129.198C200.32 129.208 201.684 128.803 202.845 128.036C204.005 127.269 204.909 126.175 205.44 124.893C205.899 123.788 205.906 122.549 205.461 121.438C205.016 120.327 204.154 119.433 203.058 118.946L201.721 118.353Z" fill="#E98862"/>
<g opacity="0.2">
<path opacity="0.2" d="M193.793 120.752C193.793 120.786 193.779 120.818 193.755 120.841C193.731 120.865 193.699 120.878 193.665 120.878L187.473 120.933C187.457 120.933 187.44 120.93 187.424 120.924C187.409 120.918 187.394 120.908 187.382 120.897C187.37 120.885 187.361 120.871 187.354 120.856C187.348 120.84 187.344 120.824 187.344 120.807C187.344 120.79 187.347 120.773 187.353 120.758C187.36 120.742 187.369 120.728 187.381 120.716C187.393 120.704 187.407 120.695 187.422 120.688C187.438 120.682 187.454 120.678 187.471 120.678L193.663 120.623C193.697 120.623 193.729 120.636 193.753 120.66C193.777 120.684 193.791 120.716 193.791 120.75L193.793 120.752Z" fill="#0C0C0C"/>
</g>
<g opacity="0.2">
<path opacity="0.2" d="M193.893 123.471C193.893 123.504 193.879 123.536 193.855 123.559C193.832 123.583 193.8 123.596 193.766 123.597L186.856 123.659C186.822 123.659 186.79 123.645 186.766 123.621C186.742 123.597 186.728 123.565 186.728 123.531C186.729 123.498 186.743 123.466 186.767 123.442C186.791 123.418 186.822 123.405 186.856 123.404L193.766 123.342C193.8 123.342 193.833 123.355 193.857 123.379C193.881 123.403 193.894 123.435 193.894 123.469L193.893 123.471Z" fill="#0C0C0C"/>
</g>
<g opacity="0.2">
<path opacity="0.2" d="M194.019 126.413C194.018 126.447 194.004 126.479 193.98 126.502C193.956 126.526 193.924 126.539 193.89 126.539L188.379 126.588C188.362 126.588 188.345 126.585 188.329 126.579C188.314 126.573 188.3 126.563 188.288 126.552C188.276 126.54 188.266 126.526 188.259 126.511C188.253 126.495 188.249 126.479 188.249 126.462C188.249 126.445 188.252 126.429 188.259 126.413C188.265 126.397 188.274 126.383 188.286 126.371C188.298 126.359 188.312 126.35 188.327 126.343C188.343 126.337 188.359 126.333 188.376 126.333L193.888 126.284C193.922 126.284 193.955 126.297 193.979 126.321C194.003 126.345 194.016 126.377 194.016 126.411L194.019 126.413Z" fill="#0C0C0C"/>
</g>
<path d="M201.99 132.556L243.852 134.957C245.328 135.117 246.821 134.934 248.214 134.423C249.607 133.912 250.862 133.087 251.881 132.012C252.899 130.937 253.654 129.642 254.085 128.228C254.517 126.813 254.613 125.319 254.367 123.862L249.284 83.1506C249.075 81.9119 248.622 80.7263 247.953 79.6617C247.283 78.597 246.409 77.674 245.382 76.9455C244.354 76.217 243.192 75.6971 241.962 75.4156C240.732 75.1341 239.459 75.0965 238.215 75.3049C236.971 75.5134 235.78 75.9637 234.71 76.6303C233.641 77.2969 232.714 78.1667 231.982 79.19C231.25 80.2132 230.728 81.37 230.445 82.5942C230.163 83.8184 230.125 85.086 230.334 86.3248L232.782 117.249L202.174 116.161L201.99 132.556Z" fill="#367CFF"/>
<path d="M239.027 117.119C239.059 117.119 239.09 117.107 239.114 117.085C239.137 117.063 239.152 117.033 239.154 117.001C239.156 116.969 239.147 116.938 239.127 116.913C239.107 116.888 239.078 116.871 239.046 116.866L232.856 116.825C232.839 116.823 232.822 116.823 232.805 116.827C232.789 116.831 232.774 116.838 232.76 116.848C232.746 116.858 232.735 116.871 232.726 116.885C232.718 116.9 232.712 116.916 232.71 116.933C232.705 116.966 232.713 117 232.734 117.027C232.754 117.054 232.784 117.072 232.818 117.077L239.008 117.118C239.014 117.119 239.021 117.119 239.027 117.119Z" fill="#0C0C0C"/>
<path d="M242.52 135.141C242.554 135.143 242.587 135.132 242.613 135.109C242.639 135.087 242.654 135.055 242.656 135.022C242.658 134.988 242.647 134.954 242.625 134.929C242.602 134.904 242.57 134.888 242.536 134.886L202.269 132.497L202.389 116.35L232.814 117.077C232.833 117.08 232.854 117.078 232.872 117.071C232.891 117.065 232.908 117.054 232.922 117.04C232.936 117.025 232.947 117.008 232.953 116.989C232.959 116.97 232.96 116.949 232.957 116.93L231.236 98.4955C231.233 98.4789 231.228 98.463 231.219 98.4487C231.21 98.4344 231.198 98.422 231.184 98.4123C231.171 98.4025 231.155 98.3956 231.139 98.392C231.122 98.3883 231.105 98.3879 231.088 98.3909C231.072 98.3937 231.056 98.3997 231.042 98.4085C231.027 98.4174 231.015 98.429 231.005 98.4427C230.995 98.4563 230.988 98.4717 230.985 98.4881C230.981 98.5044 230.98 98.5213 230.983 98.5379L232.675 116.801L202.331 116.069C202.315 116.065 202.297 116.063 202.28 116.066C202.263 116.068 202.247 116.073 202.232 116.082C202.218 116.09 202.205 116.102 202.195 116.116C202.184 116.129 202.177 116.145 202.173 116.161L201.99 132.556C201.982 132.588 201.987 132.622 202.004 132.65C202.021 132.679 202.048 132.7 202.08 132.709L242.502 135.138C242.508 135.14 242.514 135.141 242.52 135.141Z" fill="#0C0C0C"/>
<path d="M98.691 126.102H95.2885L93.3799 118.732C93.3092 118.47 93.1888 117.928 93.0187 117.106C92.8486 116.284 92.7505 115.732 92.7245 115.45C92.6861 115.796 92.5897 116.351 92.4353 117.115C92.2809 117.88 92.1621 118.425 92.0789 118.752L90.1798 126.102H86.787L83.1913 112.073H86.1314L87.9339 119.731C88.2488 121.145 88.4769 122.37 88.6182 123.406C88.6566 123.042 88.745 122.477 88.8834 121.713C89.0217 120.948 89.1519 120.355 89.2739 119.933L91.3269 112.073H94.1512L96.2042 119.933C96.294 120.285 96.4065 120.822 96.5416 121.545C96.6767 122.267 96.7792 122.888 96.8491 123.407C96.9133 122.908 97.0158 122.286 97.1565 121.54C97.2973 120.795 97.4254 120.192 97.5409 119.731L99.3344 112.073H102.274L98.691 126.102Z" fill="#0CBC8B"/>
<path d="M112.167 126.102H104.05V112.073H112.167V114.511H107.039V117.591H111.81V120.027H107.039V123.645H112.167V126.102Z" fill="#0CBC8B"/>
<path d="M115.106 126.102V112.073H118.095V123.646H123.811V126.103L115.106 126.102Z" fill="#0CBC8B"/>
<path d="M132.245 114.347C131.739 114.324 131.234 114.427 130.778 114.648C130.321 114.868 129.928 115.198 129.632 115.609C129.015 116.45 128.707 117.622 128.707 119.126C128.707 122.255 129.886 123.819 132.244 123.819C133.475 123.772 134.69 123.522 135.84 123.079V125.574C134.609 126.068 133.292 126.313 131.965 126.294C129.915 126.294 128.347 125.675 127.261 124.437C126.174 123.199 125.631 121.422 125.632 119.106C125.602 117.784 125.876 116.473 126.432 115.273C126.925 114.22 127.726 113.34 128.731 112.749C129.801 112.145 131.015 111.842 132.244 111.871C133.676 111.886 135.087 112.224 136.369 112.859L135.405 115.278C134.887 115.032 134.356 114.814 133.815 114.625C133.311 114.445 132.78 114.351 132.245 114.347Z" fill="#0CBC8B"/>
<path d="M151.629 119.068C151.629 121.39 151.051 123.175 149.894 124.423C148.737 125.671 147.079 126.294 144.92 126.294C142.761 126.294 141.103 125.67 139.947 124.423C138.79 123.175 138.212 121.384 138.212 119.049C138.212 116.714 138.792 114.93 139.951 113.699C141.111 112.468 142.774 111.852 144.939 111.852C147.105 111.852 148.761 112.472 149.909 113.714C151.056 114.955 151.63 116.74 151.629 119.068ZM141.344 119.068C141.344 120.635 141.643 121.816 142.241 122.609C142.839 123.402 143.732 123.799 144.921 123.799C147.305 123.799 148.497 122.222 148.497 119.068C148.497 115.908 147.311 114.328 144.94 114.328C143.751 114.328 142.854 114.726 142.249 115.522C141.645 116.319 141.343 117.501 141.344 119.068Z" fill="#0CBC8B"/>
<path d="M160.517 126.102L157.124 115.095H157.037C157.159 117.335 157.22 118.828 157.22 119.577V126.102H154.55V112.073H158.618L161.953 122.802H162.011L165.548 112.073H169.616V126.102H166.83V119.461C166.83 119.148 166.835 118.787 166.845 118.377C166.854 117.967 166.897 116.88 166.975 115.114H166.888L163.254 126.102H160.517Z" fill="#0CBC8B"/>
<path d="M181.279 126.102H173.163V112.073H181.279V114.511H176.151V117.591H180.923V120.027H176.151V123.645H181.279V126.102Z" fill="#0CBC8B"/>
</g>
<defs>
<clipPath id="clip0">
<rect width="254" height="141" fill="white" transform="translate(0.5 0.5)"/>
</clipPath>
</defs>
</svg>
